<?xml version="1.0" encoding="utf-8"?>
<!-- Generator: Adobe Illustrator 26.0.1, SVG Export Plug-In . SVG Version: 6.00 Build 0)  -->
<svg version="1.1" id="Layer_1" xmlns="http://www.w3.org/2000/svg" xmlns:xlink="http://www.w3.org/1999/xlink" x="0px" y="0px"
	 viewBox="0 0 146.71 146.74" style="enable-background:new 0 0 146.71 146.74;" xml:space="preserve">
<style type="text/css">
	.st0{fill:#FFFFFF;}
	.st1{clip-path:url(#SVGID_00000177468147356831905740000001442674849609551232_);fill:#FFFFFF;}
</style>
<g>
	<path class="st0" d="M73.41,146.2c-40.12,0-72.76-32.64-72.76-72.76c0-40.12,32.64-72.76,72.76-72.76
		c40.12,0,72.76,32.64,72.76,72.76C146.17,113.56,113.53,146.2,73.41,146.2z M73.41,3.4C34.79,3.4,3.37,34.82,3.37,73.44
		c0,38.62,31.42,70.04,70.04,70.04c38.62,0,70.04-31.42,70.04-70.04C143.45,34.82,112.03,3.4,73.41,3.4z"/>
</g>
<g>
	<path class="st0" d="M73.41,140.49c-36.97,0-67.05-30.08-67.05-67.05c0-36.97,30.08-67.05,67.05-67.05
		c36.97,0,67.05,30.08,67.05,67.05C140.46,110.41,110.38,140.49,73.41,140.49z M73.41,7.07c-36.6,0-66.37,29.77-66.37,66.37
		c0,36.6,29.77,66.37,66.37,66.37c36.6,0,66.37-29.77,66.37-66.37C139.78,36.84,110,7.07,73.41,7.07z"/>
</g>
<g>
	<defs>
		<path id="SVGID_1_" d="M110.97,23.02V45.8l24.77,26.29l1.62,14.44c0,0-2.96,16.63-9.44,20.17c-6.48,3.54-32.59,7.61-32.59,7.61
			l-12.78-7.61l4.26,27.29c0,0-5.37,4.21-6.48,3.84c-1.11-0.37-24.44-2.41-24.44-2.41l-26.48-24.81L14.04,93.57l-2.78-20.92
			l16.11-43.4l17.04-10.48L110.97,23.02z"/>
	</defs>
	<clipPath id="SVGID_00000150793875004920615170000002085600432424384928_">
		<use xlink:href="#SVGID_1_"  style="overflow:visible;"/>
	</clipPath>
	<path style="clip-path:url(#SVGID_00000150793875004920615170000002085600432424384928_);fill:#FFFFFF;" d="M110.97,29.39v-1.22
		h-75.9v9.92h17.12V87.4c0,3.34-1.29,6.13-3.86,8.35c-2.49,2.23-5.44,3.34-8.87,3.34c-3.26,0-6-1.16-8.22-3.47
		c-2.31-2.23-3.47-4.97-3.47-8.22v-7.84h-9.77v7.84c0,5.74,2.14,10.58,6.43,14.52c4.2,3.94,9.21,5.91,15.04,5.91
		c6.08,0,11.31-1.93,15.68-5.78c4.54-3.94,6.81-8.82,6.81-14.65V38.09h8.93v79.21l-2.94,5.88l-5.41,10.81h10.83h10.83l-5.41-10.81
		l-2.93-5.84V38.09h8.76c-2.61,3.23-3.92,7.1-3.92,11.63c0,6.08,2.75,11.21,8.25,15.37c4.83,3.58,10.95,6.04,18.37,7.37
		c5.58,1,9.87,2.33,12.87,4c4.08,2.33,6.12,5.46,6.12,9.37c0,4.33-1.75,7.79-5.25,10.37c-3.42,2.58-8,3.87-13.75,3.87
		c-5.75,0-10.33-1.75-13.75-5.25c-3.5-3.42-5.25-8-5.25-13.75h-9.5c0,8.33,2.58,15,7.75,19.99c5.25,5,12.16,7.5,20.74,7.5
		c8.58,0,15.5-2.17,20.74-6.5c5.16-4.25,7.75-9.95,7.75-17.12c0-6-3.04-10.83-9.12-14.5c-4.67-2.92-11.12-5.08-19.37-6.5
		c-4.83-0.83-8.75-2.37-11.75-4.62c-3.58-2.58-5.37-5.79-5.37-9.62c0-3.66,1.54-6.58,4.62-8.75c2.1-1.44,4.65-2.4,7.64-2.88h8.52
		L110.97,29.39z"/>
</g>
</svg>
